<?xml version="1.0" encoding="utf-8"?>
<!-- Generator: Adobe Illustrator 19.0.0, SVG Export Plug-In . SVG Version: 6.00 Build 0)  -->
<svg version="1.1" id="Layer_1" xmlns="http://www.w3.org/2000/svg" xmlns:xlink="http://www.w3.org/1999/xlink" x="0px" y="0px"
	 viewBox="0 0 200 84" style="enable-background:new 0 0 200 84;" xml:space="preserve">
<style type="text/css">
	.st0{clip-path:url(#XMLID_59_);fill:#0076AE;}
	.st1{fill:none;stroke:#000000;}
	.st2{fill:#333333;stroke:#FFFFFF;}
	.st3{clip-path:url(#XMLID_60_);fill:#0076AE;}
	.st4{fill:#333333;stroke:#FFFFFF;stroke-width:0.784;}
	.st5{clip-path:url(#XMLID_61_);fill:#0076AE;}
	.st6{clip-path:url(#XMLID_62_);fill:#0076AE;}
	.st7{clip-path:url(#XMLID_63_);fill:#333333;stroke:#FFFFFF;stroke-miterlimit:10;}
	.st8{fill:#0076AE;}
	.st9{fill:#333333;stroke:#FFFFFF;stroke-miterlimit:10;}
	.st10{clip-path:url(#XMLID_65_);fill:#0076AE;}
	.st11{fill:#333333;}
</style>
<g>
	<defs>
		<path id="XMLID_56_" d="M135.1,41.3l-0.6,0.5c-0.1,3.3,0.1,7-0.2,10.1l0,0l-4.6-10.5l-8.8,0.3l-0.8,0.7v11.1c0,0.2,0.1,0.3,0,0.4
			l0.1,24l9.7-0.3l0.1-0.7c-0.1-2.9-0.1-6.8,0-10.1l0,0l5,10.6l9.1-0.1c0.1-0.2,0.2-36.5,0.2-36.5L135.1,41.3z"/>
	</defs>
	<clipPath id="XMLID_59_">
		<use xlink:href="#XMLID_56_"  style="overflow:visible;"/>
	</clipPath>
	<rect id="XMLID_57_" x="120.1" y="41.1" class="st0" width="24.2" height="37"/>
</g>
<path id="XMLID_55_" class="st1" d="M134.4,51.9L134.4,51.9c0.3-3.1,0.1-6.7,0.2-10.1l0.6-0.5l9.2-0.3c0,0,0,36.3-0.2,36.5l-9.1,0.1
	l-5-10.6l0,0c-0.1,3.3-0.1,7.1,0,10.1l-0.1,0.7l-9.7,0.3l-0.1-24c0.1-0.1,0-0.2,0-0.4V42.4l0.8-0.7l8.8-0.3L134.4,51.9z"/>
<path class="st2" d="M121.4,41.8l-0.1,35.9c2.7,0.1,5.8,0,8.5-0.1v-0.1l0-12.2l0.1-2l0.1,0.1l4.2,10.2l1.7,4c2.7,0,5.8,0.1,8.3-0.1
	l0.1-11.8l0.1-24.7c-2.7,0.1-5.6,0.1-8.4,0.2l0,0l-0.1,13.5l-0.1,0.1l0,0l-5.9-13.6L121.4,41.8z M130.5,40.5c1,2.1,1.8,4.2,2.8,6.3
	c0.1-1.5,0.1-3,0.1-4.6l2-1.8l9.8-0.2l0,4.9l-0.1,24.8l0,7.8l-2.3,2.1c-2.9,0.1-5.8,0-8.7,0.1c-1.1-2.6-2.2-5.2-3.3-7.9
	c-0.1,1.9-0.1,5.8-0.1,5.8l-2.9,2.1l-8.5,0.1l0-10.4l0.1-27l2-1.8L130.5,40.5z"/>
<path class="st2" d="M121.4,41.8l-0.1,35.9c2.7,0.1,5.8,0,8.5-0.1v-0.1l0-12.2l0.1-2l0.1,0.1l4.2,10.2l1.7,4c2.7,0,5.8,0.1,8.3-0.1
	l0.1-11.8l0.1-24.7c-2.7,0.1-5.6,0.1-8.4,0.2l0,0l-0.1,13.5l-0.1,0.1l0,0l-5.9-13.6L121.4,41.8z M130.5,40.5c1,2.1,1.8,4.2,2.8,6.3
	c0.1-1.5,0.1-3,0.1-4.6l2-1.8l9.8-0.2l0,4.9l-0.1,24.8l0,7.8l-2.3,2.1c-2.9,0.1-5.8,0-8.7,0.1c-1.1-2.6-2.2-5.2-3.3-7.9
	c-0.1,1.9-0.1,5.8-0.1,5.8l-2.9,2.1l-8.5,0.1l0-10.4l0.1-27l2-1.8L130.5,40.5z"/>
<g>
	<defs>
		<path id="XMLID_49_" d="M153.1,41.1c-2.3,0.4-4,2.8-4.5,4.8l0,26.9l0.4,1.8c0.6,2,2.8,3.5,4.9,3.6l14.4,0.1
			c1.5-0.3,1.8-0.7,2.6-1.3c1.2-1.1,1.9-2.8,2-4.2c0.1-3,0-6.6,0.1-9.4c0.3-0.1,0.7,0,1,0.1c0.6,0.1,1.3,0.3,1.6-0.4l0-8.5l-14,0.2
			c-0.3,0.2-0.7,0.5-0.9,0.8l0.1,8c0.2,0,0.4,0,0.6,0c0.4,0,0.8,0,1.2,0c-0.1,1.8,0.2,3.5-0.1,5.4c-1.3,0-2.9,0-4.1-0.1l0-19.1
			l13.7-0.3l0.8-0.6c0-2.7,0.1-5.5-0.1-8.1L153.1,41.1z"/>
	</defs>
	<clipPath id="XMLID_60_">
		<use xlink:href="#XMLID_49_"  style="overflow:visible;"/>
	</clipPath>
	<rect id="XMLID_50_" x="148.5" y="40.7" class="st3" width="27" height="37.7"/>
</g>
<path id="XMLID_48_" class="st1" d="M172.8,40.7c0.1,2.7,0,5.4,0.1,8.1l-0.8,0.6l-13.7,0.3l0,19.1c1.2,0.1,2.8,0.1,4.1,0.1
	c0.3-1.9,0-3.6,0.1-5.4c-0.6-0.1-1.3,0-1.9,0l-0.1-8c0.2-0.3,0.6-0.5,0.9-0.8l14-0.2l0,8.5c-0.5,1.1-1.8,0.1-2.6,0.4
	c-0.1,2.8,0,6.4-0.1,9.4c-0.1,1.5-0.8,3.1-2,4.2c-0.8,0.6-1,1-2.6,1.3l-14.4-0.1c-2.2-0.1-4.3-1.6-4.9-3.6l-0.4-1.8l0-26.9
	c0.6-2,2.2-4.4,4.5-4.8L172.8,40.7z"/>
<path class="st2" d="M155.4,41.4c-0.7,0-2,0-2.7,0.4c-1.9,0.7-3.2,2.8-3.3,5l0,24.3c-0.2,2.3,0.3,4.5,1.8,5.9
	c1.3,1.2,2.9,1.1,4.5,1.3l11.8,0c0.9,0,1.9-0.1,2.6-0.6c1.5-1,2.2-2.7,2.4-4.3l0-9.8l0.1-0.2c1,0,1.8,0,2.7-0.1c0-2.6,0-5.3,0-7.9
	l-1,0l-12.6,0.2c0,2.8-0.1,5.1,0,7.9c0.7,0.1,1.4,0,2.1,0c0,2.1-0.1,4.2,0,6.3l-0.1,0.2l-5.5,0l0-20.8l0.1-0.1l14.2-0.2
	c0-2.6,0.1-5.1,0-7.7C165.9,41.2,160.9,41.3,155.4,41.4 M163,40.4c3.8-0.1,7.1-0.1,10.6-0.2c0,2.9,0,5.9-0.1,8.9l-2.2,2
	c-4,0.1-7.9,0.1-12.4,0.2l-0.1,0.1l0,17.5c0.9,0,2.7,0,2.7,0l0-3.4l-2.1,0c-0.1-3.1,0-5.9,0-9c0.7-0.7,1.4-1.3,2.2-2
	c4.8-0.1,9.7-0.1,14.5-0.2l-0.1,9c-0.9,0.9-1.9,1.7-2.7,2.6l0,8.1c-0.4,2.4-2.3,5.1-4.9,6.1c-1,0.4-2.1,0.4-3.1,0.4
	c-4.5-0.1-9.2,0.3-13.5-0.4c-3.4-1-4.7-4.3-5-7.5l0.1-23.4c0.2-3,1.7-6.8,4.8-8.1c1-0.4,2-0.5,3-0.6L163,40.4z"/>
<path class="st4" d="M155.4,41.4c-0.7,0-2,0-2.7,0.4c-1.9,0.7-3.2,2.8-3.3,5l0,24.3c-0.2,2.3,0.3,4.5,1.8,5.9
	c1.3,1.2,2.9,1.1,4.5,1.3l11.8,0c0.9,0,1.9-0.1,2.6-0.6c1.5-1,2.2-2.7,2.4-4.3l0-9.8l0.1-0.2c1,0,1.8,0,2.7-0.1c0-2.6,0-5.3,0-7.9
	l-1,0l-12.6,0.2c0,2.8-0.1,5.1,0,7.9c0.7,0.1,1.4,0,2.1,0c0,2.1-0.1,4.2,0,6.3l-0.1,0.2l-5.5,0l0-20.8l0.1-0.1l14.2-0.2
	c0-2.6,0.1-5.1,0-7.7C165.9,41.2,160.9,41.3,155.4,41.4z M163,40.4c3.8-0.1,7.1-0.1,10.6-0.2c0,2.9,0,5.9-0.1,8.9l-2.2,2
	c-4,0.1-7.9,0.1-12.4,0.2l-0.1,0.1l0,17.5c0.9,0,2.7,0,2.7,0l0-3.4l-2.1,0c-0.1-3.1,0-5.9,0-9c0.7-0.7,1.4-1.3,2.2-2
	c4.8-0.1,9.7-0.1,14.5-0.2l-0.1,9c-0.9,0.9-1.9,1.7-2.7,2.6l0,8.1c-0.4,2.4-2.3,5.1-4.9,6.1c-1,0.4-2.1,0.4-3.1,0.4
	c-4.5-0.1-9.2,0.3-13.5-0.4c-3.4-1-4.7-4.3-5-7.5l0.1-23.4c0.2-3,1.7-6.8,4.8-8.1c1-0.4,2-0.5,3-0.6L163,40.4z"/>
<g>
	<defs>
		<path id="XMLID_42_" d="M180,41.1l0.1,10.7v10l0.1,14.8l0.1,1.4l17.9,0l0.6-0.6l-0.1-8.4l-8.8-0.1c0-2-0.1-4,0.1-6
			c0.8,0,1.7,0,2.5,0c1.5,0,3,0,4.6-0.1l0-8.8c-1,0-2.1,0-3.1,0c-1.4,0-2.8,0-4.1-0.1v-4.4c2.7-0.1,5.3,0,8-0.1l0.9-0.9l0-8
			l-17.9-0.2L180,41.1z"/>
	</defs>
	<clipPath id="XMLID_61_">
		<use xlink:href="#XMLID_42_"  style="overflow:visible;"/>
	</clipPath>
	<rect id="XMLID_43_" x="180" y="40.4" class="st5" width="18.8" height="37.7"/>
</g>
<path id="XMLID_41_" class="st1" d="M198.8,48.6l-0.9,0.9c-2.7,0-5.3,0-8,0.1V54c2.3,0.2,4.7,0,7.1,0.1l0,8.8
	c-2.4,0.1-4.8,0-7.1,0.1c-0.1,2-0.1,4-0.1,6l8.8,0.1l0.1,8.4l-0.6,0.6l-17.9,0l-0.1-1.4l-0.1-14.8v-10L180,41.1l0.8-0.7l17.9,0.2
	L198.8,48.6z"/>
<path class="st2" d="M198.4,40.7l-17.5-0.3l-0.1,0.1l-0.1,28.9l0.1,8.5c6,0.1,11.2-0.1,17.4,0l0.1-0.1l-0.1-7.8
	c-2.9,0-5.7-0.1-8.7-0.1c-0.1-2.5,0-5,0-7.4l7.2,0c0.1-2.6,0.1-5.3,0-7.9l-7.2-0.1l-0.1-5.9l0.1-0.1c3.1,0,5.6,0.1,8.7,0L198.4,40.7
	L198.4,40.7z M199.5,39.9l-0.1,8.7l-1.9,2.2c-2.1,0.1-7.1,0-7.1,0c-0.1,0.9,0,1.8,0,2.7c2.4,0.1,4.8,0,7.2,0.1l0,8.9l-1.9,2.2
	c-1.7,0-3.5-0.1-5.2-0.1l-0.1,0.1l0,3.9c0.3,0.1,6.3,0.2,8.9,0.2l0,8.9l-2.1,2.4c0,0-12.6,0.1-19,0l0-23.7l0.1-14.3l2.4-2.8
	l18.5,0.2L199.5,39.9z"/>
<path class="st2" d="M198.4,40.7l-17.5-0.3l-0.1,0.1l-0.1,28.9l0.1,8.5c6,0.1,11.2-0.1,17.4,0l0.1-0.1l-0.1-7.8
	c-2.9,0-5.7-0.1-8.7-0.1c-0.1-2.5,0-5,0-7.4l7.2,0c0.1-2.6,0.1-5.3,0-7.9l-7.2-0.1l-0.1-5.9l0.1-0.1c3.1,0,5.6,0.1,8.7,0L198.4,40.7
	L198.4,40.7z M199.5,39.9l-0.1,8.7l-1.9,2.2c-2.1,0.1-7.1,0-7.1,0c-0.1,0.9,0,1.8,0,2.7c2.4,0.1,4.8,0,7.2,0.1l0,8.9l-1.9,2.2
	c-1.7,0-3.5-0.1-5.2-0.1l-0.1,0.1l0,3.9c0.3,0.1,6.3,0.2,8.9,0.2l0,8.9l-2.1,2.4c0,0-12.6,0.1-19,0l0-23.7l0.1-14.3l2.4-2.8
	l18.5,0.2L199.5,39.9z"/>
<g>
	<defs>
		<path id="XMLID_35_" d="M69.7,42.6c-0.3-0.1-0.6,0.3-0.7,0.4c0,1,0.1,2-0.1,2.9l-3,0.2c0,2-0.1,3.3,0,5.3c1.1,0,2.1-0.1,3.1,0
			l0,22.8c0.2,0.9,0.4,1.8,1,2.5c1.7,1.3,3.7,1.1,5.8,1c0.9-0.1,1.9-0.1,2.8-0.1v-5.3l-0.1-0.1c-0.7,0.1-1.8,0.1-2.6-0.2
			c-0.5-0.2-0.6-0.6-0.7-1.1L75.2,51l3.4-0.2v-5.4l-3.4,0.2L75,42.2C73.3,42.3,71.4,42.5,69.7,42.6"/>
	</defs>
	<clipPath id="XMLID_62_">
		<use xlink:href="#XMLID_35_"  style="overflow:visible;"/>
	</clipPath>
	<rect id="XMLID_36_" x="65.8" y="42.2" class="st6" width="12.8" height="35.8"/>
</g>
<path id="XMLID_34_" class="st1" d="M78.6,45.5v5.4L75.2,51l0.1,19.9c0.1,0.5,0.2,0.9,0.7,1.1c0.8,0.2,1.8,0.2,2.6,0.2l0.1,0.1v5.3
	c-3-0.2-6.1,1-8.6-0.9c-0.6-0.7-0.8-1.6-1-2.5l0-22.8c-1-0.1-2,0-3.1,0c-0.1-2-0.1-3.3,0-5.3l3-0.2C69.1,45,69,44,69,43
	c0.1-0.2,0.4-0.5,0.7-0.4c1.7-0.1,3.5-0.3,5.3-0.4l0.2,3.4L78.6,45.5z"/>
<g>
	<defs>
		<path id="XMLID_32_" d="M80.8,60.8c0,1.8-0.1,3.5,0,5.5c1.9-0.1,4-0.1,5.9-0.2v-5.6C84.8,60.6,82.7,60.7,80.8,60.8"/>
	</defs>
	<use xlink:href="#XMLID_32_"  style="overflow:visible;fill:#333333;"/>
	<clipPath id="XMLID_63_">
		<use xlink:href="#XMLID_32_"  style="overflow:visible;"/>
	</clipPath>
	<rect id="XMLID_33_" x="80.8" y="60.6" class="st7" width="6" height="5.8"/>
	<use xlink:href="#XMLID_32_"  style="overflow:visible;fill:none;stroke:#FFFFFF;stroke-miterlimit:10;"/>
</g>
<path id="XMLID_31_" class="st8" d="M86.8,66.2c-1.9,0.1-4.1,0.1-5.9,0.2c-0.1-2-0.1-3.6,0-5.5c1.9-0.2,4-0.3,6-0.3V66.2z"/>
<path class="st2" d="M74.8,42.4c-1.6,0.1-3,0.1-4.6,0.3l0,3.3c-0.7,0.1-2.2,0-3.2,0.2c-0.1,1.4,0.1,2.9,0,4.3l3.1-0.1l0,23.4
	c0.1,0.7,0.2,1.5,0.6,2.1c0.4,1,1.5,1.4,2.5,1.6l5.2-0.1l0-4.6c-0.8,0-1.6,0.1-2.2-0.2c-0.8-0.4-1-1.3-1.1-2.1l0.1-20.3l3.4-0.3
	l0-4.3c-1.1,0-2.3,0.1-3.4,0.1L74.8,42.4z M75.8,44.8c1.1,0,2.4-0.1,3.5-0.2c0.1,2.5,0,5,0,7.6l-3.5,0.2l-0.1,0.2l0,18
	c0.1,0.5,0.2,1.1,0.7,1.3c0.9,0.1,1.9,0,2.8,0c0,2.4,0.1,5.2,0,7.6l-0.1,0.1c-3-0.2-6,0.7-8.6-0.7c-2-1.6-2.6-3.9-2.7-6.3L68,52.8
	l-0.1-0.1c-1.1,0-2.2,0.1-3.3,0.1l0-5.3l5.1-5.7c2-0.1,4.1-0.3,6.1-0.4L75.8,44.8z"/>
<path class="st2" d="M74.8,42.4c-1.6,0.1-3,0.1-4.6,0.3l0,3.3c-0.7,0.1-2.2,0-3.2,0.2c-0.1,1.4,0.1,2.9,0,4.3l3.1-0.1l0,23.4
	c0.1,0.7,0.2,1.5,0.6,2.1c0.4,1,1.5,1.4,2.5,1.6l5.2-0.1l0-4.6c-0.8,0-1.6,0.1-2.2-0.2c-0.8-0.4-1-1.3-1.1-2.1l0.1-20.3l3.4-0.3
	l0-4.3c-1.1,0-2.3,0.1-3.4,0.1L74.8,42.4z M75.8,44.8c1.1,0,2.4-0.1,3.5-0.2c0.1,2.5,0,5,0,7.6l-3.5,0.2l-0.1,0.2l0,18
	c0.1,0.5,0.2,1.1,0.7,1.3c0.9,0.1,1.9,0,2.8,0c0,2.4,0.1,5.2,0,7.6l-0.1,0.1c-3-0.2-6,0.7-8.6-0.7c-2-1.6-2.6-3.9-2.7-6.3L68,52.8
	l-0.1-0.1c-1.1,0-2.2,0.1-3.3,0.1l0-5.3l5.1-5.7c2-0.1,4.1-0.3,6.1-0.4L75.8,44.8z"/>
<path class="st9" d="M86.8,60.7c-1.4,0-2.9,0.1-4.3,0.1c-0.2,1.4,0,3.1-0.1,4.5c1.3,0,3,0,4.4-0.1L86.8,60.7z M87.7,66.5
	c-0.4,0.5-0.9,0.9-1.4,1c-1.7,0.4-4.3,0.2-6.2,0.4l0-6.7l1.5-1.1c2,0,4-0.2,6-0.2L87.7,66.5z"/>
<path class="st2" d="M86.8,60.7c-1.4,0-2.9,0.1-4.3,0.1c-0.2,1.4,0,3.1-0.1,4.5c1.3,0,3,0,4.4-0.1L86.8,60.7z M87.7,66.5
	c-0.4,0.5-0.9,0.9-1.4,1c-1.7,0.4-4.3,0.2-6.2,0.4l0-6.7l1.5-1.1c2,0,4-0.2,6-0.2L87.7,66.5z"/>
<g>
	<defs>
		<path id="XMLID_21_" d="M63.4,4.4l-47.7,5.8c-3.4,0.6-6.5,1.9-9.1,4.3C2.4,18.2,0.9,24,3,29l9,22.7c1.8,2.7,4.7,4.1,7.9,4.3
			l24.5-0.2c0.5,0,1.2,0.4,1.1,0.8c-0.7,2.6-1.5,4.7-2.6,7.2c-0.2,0.5-0.7,0.9-1.2,0.9l-8.8,0.1c-0.6,0-1.1-0.3-1.6-0.8l-1.7-4
			l-13.1,0.4c-0.3,0.3-0.7,0.4-0.9,0.8l5.1,13.1c0.8,1.6,2.6,2.9,4.4,3.2h22.6c2.8-0.3,4.9-2.9,6.1-5.1l6.5-17.4
			c0.5-1.8,0.6-4.4,0-6.3c-0.9-3.1-4.2-4.8-7.3-5.3l-14.5,0.1l-14.4,0c-0.6,0-1-0.3-1.3-0.8l-2.6-6.4l-0.1-1.1
			c0.1-0.3,0.3-0.5,0.6-0.6l9-1.1l21.8-2.6l2.3-0.2c0.3,0.1,0.4,0.4,0.3,0.7c-0.6,2.2-1.5,4.2-2.2,6.4l14.3-1.5l0.9-0.6l6.6-17.8
			c1-2.8,0.7-6.3-0.7-8.8c-1.9-3.2-5.2-4.7-8.8-4.7C64.1,4.3,63.8,4.3,63.4,4.4"/>
	</defs>
	<linearGradient id="XMLID_64_" gradientUnits="userSpaceOnUse" x1="2.0773" y1="40.8071" x2="74.5012" y2="40.8071">
		<stop  offset="0" style="stop-color:#00539F"/>
		<stop  offset="5.394690e-02" style="stop-color:#0056A1"/>
		<stop  offset="0.1403" style="stop-color:#005FA6"/>
		<stop  offset="0.2483" style="stop-color:#006DAF"/>
		<stop  offset="0.3737" style="stop-color:#0081BB"/>
		<stop  offset="0.5" style="stop-color:#0096C9"/>
		<stop  offset="0.6007" style="stop-color:#0085BE"/>
		<stop  offset="0.7374" style="stop-color:#0070B1"/>
		<stop  offset="0.8543" style="stop-color:#0060A7"/>
		<stop  offset="0.9456" style="stop-color:#0057A2"/>
		<stop  offset="1" style="stop-color:#00539F"/>
	</linearGradient>
	<use xlink:href="#XMLID_21_"  style="overflow:visible;fill:url(#XMLID_64_);"/>
	<clipPath id="XMLID_65_">
		<use xlink:href="#XMLID_21_"  style="overflow:visible;"/>
	</clipPath>
	<rect id="XMLID_22_" x="0.9" y="4.3" class="st10" width="74" height="73"/>
</g>
<path id="XMLID_20_" class="st1" d="M73.2,9.1c1.4,2.5,1.7,6,0.7,8.8l-6.6,17.8l-0.9,0.6l-14.3,1.5c0.6-2.2,1.5-4.2,2.2-6.4
	c0.1-0.3,0-0.6-0.3-0.7l-2.3,0.2l-21.8,2.6l-9,1.1c-0.3,0-0.5,0.3-0.6,0.6l0.1,1.1l2.6,6.4c0.3,0.4,0.7,0.8,1.3,0.8l14.4,0l14.5-0.1
	c3.1,0.5,6.4,2.2,7.3,5.3c0.6,1.9,0.4,4.4,0,6.3l-6.5,17.4c-1.2,2.2-3.3,4.9-6.1,5.1H25.2c-1.8-0.3-3.6-1.6-4.4-3.2L15.6,61
	c0.2-0.3,0.6-0.5,0.9-0.8l13.1-0.4l1.7,4c0.4,0.5,1,0.8,1.6,0.8l8.8-0.1c0.4,0,1-0.4,1.2-0.9c1.1-2.6,1.9-4.6,2.6-7.2
	c0.1-0.4-0.5-0.8-1.1-0.8L19.9,56c-3.2-0.2-6.2-1.6-7.9-4.3L3,29c-2.1-5-0.6-10.8,3.6-14.5c2.6-2.4,5.7-3.8,9.1-4.3l47.7-5.8
	C67.4,4,71.1,5.6,73.2,9.1z"/>
<path class="st2" d="M61.7,4.6l-46.4,5.6c-2.1,0.6-4.2,1-6,2.2c-4.5,2.7-7,7.2-6.4,12.4c0.3,4.7,2.7,8.5,4.2,12.7l4.7,12.1
	c0.5,1.4,1.6,2.6,2.8,3.4c3.7,2.9,9.3,1.8,14,2c0,0,13.9-0.1,15.7-0.1c1.8,0,2,1.2,1.9,1.8c0,0-2.4,8.5-4,8.6L33,65.7
	c-0.8-0.1-1.7-0.2-2.2-0.9c-0.9-1.3-1.4-3-1.8-4.2l-12.7,0.2l-0.1,0.1c1.6,4.1,3.2,8.3,4.8,12.4c1.5,2.8,4.8,3.7,7.8,3.8l16.9,0
	c3.4-0.2,6.7-2.4,7.9-5.5l6-16.1c0.7-1.9,1.1-4.4,0.4-6.4c-0.8-2.9-4.1-4.9-7-5.3l-10.3,0l-17.5,0c-1.4,0.1-2.6-0.5-3.2-1.7
	l-2.5-6.4c-0.2-0.5-0.3-1-0.1-1.6c1-1.5,3.1-1,4.7-1.4l28.1-3.4c0.8,0,1.7-0.3,2.5-0.1c0.7,0.3,1.1,1,1,1.7c-0.7,1.9-1.4,3.8-2,5.7
	c4.5-0.4,8.9-0.8,13.3-1.3l7-19.2c0.2-0.7,0.4-1.6,0.3-2.4c0-1.8-0.5-3.5-1.2-5C70.9,5.1,66.2,3.6,61.7,4.6 M73.7,8
	c1.6,2.4,2.3,5.8,1.4,8.8l-7.1,19.3c-1.1,1-2.4,1.9-3.6,2.9c-5.2,0.5-10.1,0.9-15.2,1.4c0.7-2.2,1.6-4.4,2.3-6.6
	c0-0.3,0-0.5-0.2-0.7c-0.3-0.2-0.6-0.1-1-0.2l-22.7,2.7c-0.2,0-0.4,0.1-0.7,0.1l-4.9,0.6c-0.3,0.1-0.6,0.3-0.7,0.6
	c-0.3,0.6,0.1,1.1,0.2,1.6c0.8,1.5,0.8,3.4,2.4,4.4l28.5,0c3.3,0.2,6.7,1.8,8.2,4.9c1.6,2.9,0.8,6.7-0.5,9.5l-6,16.1
	c-1.7,3.2-3.8,6.6-8.8,6.6l-16.9,0.1c-5.1,0-9.2-2.9-10.8-7.1c-1.5-3.6-2.8-7.3-4.2-10.8l2.6-2.1l13.8-0.2c0,0,1.4,3.9,1.8,4.4
	c0.5,0.5,1.2,0.5,1.2,0.5l6.8-0.1c0.4-0.1,0.8-0.4,1-0.8l1.7-4.8c0.1-0.4,0-0.9-0.6-0.9c-1.8,0-21.6,0.2-21.6,0.2
	c-4.6-0.1-9-2.8-11-6.9l-1-2.4L1.7,32.7c-1.6-4.3-1.8-10.2,0.6-14.2c2.5-4.7,7.6-8.4,12.9-9.2L59,4c4.5-0.6,7.4-0.9,10.4,0.5
	C71,5.3,72.6,6.4,73.7,8"/>
<path class="st2" d="M61.7,4.6l-46.4,5.6c-2.1,0.6-4.2,1-6,2.2c-4.5,2.7-7,7.2-6.4,12.4c0.3,4.7,2.7,8.5,4.2,12.7l4.7,12.1
	c0.5,1.4,1.6,2.6,2.8,3.4c3.7,2.9,9.3,1.8,14,2c0,0,13.9-0.1,15.7-0.1c1.8,0,2,1.2,1.9,1.8c0,0-2.4,8.5-4,8.6L33,65.7
	c-0.8-0.1-1.7-0.2-2.2-0.9c-0.9-1.3-1.4-3-1.8-4.2l-12.7,0.2l-0.1,0.1c1.6,4.1,3.2,8.3,4.8,12.4c1.5,2.8,4.8,3.7,7.8,3.8l16.9,0
	c3.4-0.2,6.7-2.4,7.9-5.5l6-16.1c0.7-1.9,1.1-4.4,0.4-6.4c-0.8-2.9-4.1-4.9-7-5.3l-10.3,0l-17.5,0c-1.4,0.1-2.6-0.5-3.2-1.7
	l-2.5-6.4c-0.2-0.5-0.3-1-0.1-1.6c1-1.5,3.1-1,4.7-1.4l28.1-3.4c0.8,0,1.7-0.3,2.5-0.1c0.7,0.3,1.1,1,1,1.7c-0.7,1.9-1.4,3.8-2,5.7
	c4.5-0.4,8.9-0.8,13.3-1.3l7-19.2c0.2-0.7,0.4-1.6,0.3-2.4c0-1.8-0.5-3.5-1.2-5C70.9,5.1,66.2,3.6,61.7,4.6z M73.7,8
	c1.6,2.4,2.3,5.8,1.4,8.8l-7.1,19.3c-1.1,1-2.4,1.9-3.6,2.9c-5.2,0.5-10.1,0.9-15.2,1.4c0.7-2.2,1.6-4.4,2.3-6.6
	c0-0.3,0-0.5-0.2-0.7c-0.3-0.2-0.6-0.1-1-0.2l-22.7,2.7c-0.2,0-0.4,0.1-0.7,0.1l-4.9,0.6c-0.3,0.1-0.6,0.3-0.7,0.6
	c-0.3,0.6,0.1,1.1,0.2,1.6c0.8,1.5,0.8,3.4,2.4,4.4l28.5,0c3.3,0.2,6.7,1.8,8.2,4.9c1.6,2.9,0.8,6.7-0.5,9.5l-6,16.1
	c-1.7,3.2-3.8,6.6-8.8,6.6l-16.9,0.1c-5.1,0-9.2-2.9-10.8-7.1c-1.5-3.6-2.8-7.3-4.2-10.8l2.6-2.1l13.8-0.2c0,0,1.4,3.9,1.8,4.4
	c0.5,0.5,1.2,0.5,1.2,0.5l6.8-0.1c0.4-0.1,0.8-0.4,1-0.8l1.7-4.8c0.1-0.4,0-0.9-0.6-0.9c-1.8,0-21.6,0.2-21.6,0.2
	c-4.6-0.1-9-2.8-11-6.9l-1-2.4L1.7,32.7c-1.6-4.3-1.8-10.2,0.6-14.2c2.5-4.7,7.6-8.4,12.9-9.2L59,4c4.5-0.6,7.4-0.9,10.4,0.5
	C71,5.3,72.6,6.4,73.7,8z"/>
<path class="st9" d="M104.3,57.2l0,12c-0.7,0-0.9,0-1.6,0v-5.8l0.1-11.7l0-0.1l1.6,0L104.3,57.2z M101.4,49.5l-0.1,13.9l0,6.7l5.7,0
	l0.1-20.5l-0.1-0.2L101.4,49.5z"/>
<g>
	<path class="st11" d="M82.2,36.2c-3.9,0-6.6-2.7-6.6-6.5v0c0-3.6,2.8-6.5,6.6-6.5c2.3,0,3.6,0.6,4.9,1.7L85.4,27
		c-1-0.8-1.8-1.3-3.3-1.3c-2,0-3.6,1.8-3.6,3.9v0c0,2.3,1.6,4,3.8,4c1,0,1.9-0.3,2.6-0.8v-1.8h-2.8v-2.4h5.5v5.5
		C86.3,35.3,84.5,36.2,82.2,36.2z"/>
	<path class="st11" d="M97.9,36l-2.7-4H93v4h-2.8V23.4H96c3,0,4.7,1.6,4.7,4.1v0c0,2-1.1,3.3-2.7,3.9l3.1,4.5H97.9z M97.9,27.7
		c0-1.2-0.8-1.8-2.2-1.8H93v3.6h2.8C97.1,29.5,97.9,28.8,97.9,27.7L97.9,27.7z"/>
	<path class="st11" d="M109.3,36.2c-3.9,0-6.7-2.9-6.7-6.5v0c0-3.6,2.8-6.5,6.7-6.5c3.9,0,6.7,2.9,6.7,6.5v0
		C116,33.3,113.2,36.2,109.3,36.2z M113.1,29.7c0-2.2-1.6-3.9-3.8-3.9c-2.2,0-3.8,1.8-3.8,3.9v0c0,2.2,1.6,3.9,3.8,3.9
		S113.1,31.9,113.1,29.7L113.1,29.7z"/>
	<path class="st11" d="M123.7,36.2c-3.4,0-5.4-1.9-5.4-5.6v-7.2h2.8v7.1c0,2,1,3.1,2.7,3.1c1.7,0,2.7-1,2.7-3v-7.2h2.8v7.1
		C129.2,34.3,127.1,36.2,123.7,36.2z"/>
	<path class="st11" d="M136.9,32.2h-2.1V36H132V23.4h5.1c3,0,4.8,1.8,4.8,4.3v0C142,30.7,139.7,32.2,136.9,32.2z M139.2,27.8
		c0-1.2-0.9-1.9-2.2-1.9h-2.1v3.8h2.2C138.4,29.7,139.2,28.9,139.2,27.8L139.2,27.8z"/>
	<path class="st11" d="M144,36V23.4h9.5v2.5h-6.7v2.5h5.9v2.5h-5.9v2.6h6.8V36H144z"/>
</g>
<path class="st2" d="M115.8,73.7c-0.2,1.7-1.4,3.3-3,3.9c-1,0.4-2.1,0.6-3.3,0.5c-4-0.1-8.1-0.1-12.1-0.2c-2.1,0-4-1.1-5.1-2.8
	c-1.2-1.7-0.7-4.2-0.8-6.2l0.1-21.7c0.3-2.2,1.4-4.5,3.5-5.5c0.4-0.2,1-0.3,1.5-0.3l14.2,0c1.6,0,3.2,0.7,4.1,2.1
	c0.4,0.9,0.8,1.8,0.9,2.8L115.8,73.7z M116.2,43.6c-1-2.4-3.7-3.4-6.3-3.4l-13.7,0.1l-0.6,0.1c-3.9,1.2-6.2,5.1-6.5,8.8l-0.1,22.3
	l0.1,2.2c0.6,2.6,2.8,5.1,5.5,5.9c4.3,1,8.7,0.5,13.1,0.8c1.3,0,2.4-0.3,3.5-0.6c3.2-1,5.3-3.5,5.3-7.2l0.1-26
	C116.8,45.4,116.6,44.5,116.2,43.6z"/>
<path class="st8" d="M114.9,43.5c-0.9-1.4-2.4-2.1-4.1-2.1l-14.1,0c-0.5,0-1,0.1-1.5,0.3c-2.2,1.1-3.2,3.4-3.5,5.5l-0.1,21.7
	c0.1,2-0.4,4.5,0.8,6.2c1.1,1.7,3,2.8,5,2.8c3.9,0.1,8,0.1,11.9,0.2c1.1,0.1,2.2-0.2,3.2-0.5c1.6-0.7,2.9-2.2,3-3.9l0.1-27.4
	C115.7,45.2,115.3,44.4,114.9,43.5z M107.4,70.2h-6.1V49.5l6.1,0V70.2z"/>
</svg>
